<svg width="44" height="44" viewBox="0 0 44 44" fill="none" xmlns="http://www.w3.org/2000/svg">
<g clip-path="url(#clip0_105_3967)">
<path d="M30.25 36.6667C29.667 36.6667 29.084 36.4797 28.6 36.1167L19.4333 29.2417C18.7422 28.721 18.3333 27.907 18.3333 27.0417V21.8148L9.57367 13.0552C8.129 11.6105 7.33333 9.691 7.33333 7.64867C7.33333 3.43017 10.7635 0 14.9802 0H36.3532C40.5698 0 44 3.43017 44 7.64683C44 9.68917 43.2043 11.6105 41.7597 13.0533L33 21.813V33.9148C33 34.9562 32.4115 35.9077 31.4802 36.3752C31.0915 36.5695 30.6698 36.6648 30.25 36.6648V36.6667ZM23.8333 25.6667L27.5 28.4167V20.6763C27.5 19.9467 27.7897 19.2482 28.3048 18.7312L37.8712 9.16483C38.2763 8.75967 38.5 8.22067 38.5 7.64683C38.5 6.4625 37.5375 5.5 36.3532 5.5H14.9802C13.7958 5.5 12.8333 6.4625 12.8333 7.64683C12.8333 8.22067 13.057 8.75967 13.4622 9.16483L23.0285 18.7312C23.5437 19.2463 23.8333 19.9467 23.8333 20.6763V25.6667ZM25.1167 42.9C26.0278 41.6845 25.7803 39.9612 24.5667 39.05L16.5 33V28.0097C16.5 27.28 16.2103 26.5815 15.6952 26.0645L6.12883 16.5C5.72367 16.0948 5.5 15.5558 5.5 14.982C5.5 13.4622 4.268 12.232 2.75 12.232C1.232 12.232 0 13.4622 0 14.982C0 17.0243 0.795667 18.9457 2.24033 20.3885L11 29.1482V34.375C11 35.2403 11.4088 36.0562 12.1 36.575L21.2667 43.45C21.7635 43.8203 22.341 44 22.9148 44C23.7508 44 24.5758 43.6205 25.1167 42.9Z" fill="black"/>
</g>
<defs>
<clipPath id="clip0_105_3967">
<rect width="44" height="44" fill="white"/>
</clipPath>
</defs>
</svg>
