<svg width="44" height="44" viewBox="0 0 44 44" fill="none" xmlns="http://www.w3.org/2000/svg">
<g clip-path="url(#clip0_105_3963)">
<path d="M22 0C17.6488 0 13.3953 1.29028 9.77746 3.70767C6.15958 6.12506 3.33979 9.56099 1.67466 13.581C0.00953229 17.6009 -0.426141 22.0244 0.422734 26.292C1.27161 30.5596 3.36691 34.4796 6.44366 37.5564C9.52042 40.6331 13.4404 42.7284 17.708 43.5773C21.9756 44.4262 26.3991 43.9905 30.419 42.3254C34.439 40.6602 37.875 37.8404 40.2923 34.2225C42.7097 30.6047 44 26.3512 44 22C43.9937 16.1672 41.6738 10.5751 37.5494 6.45062C33.425 2.32619 27.8328 0.00630865 22 0V0ZM22 40.3333C18.374 40.3333 14.8295 39.2581 11.8146 37.2436C8.79965 35.2291 6.44983 32.3658 5.06222 29.0159C3.67461 25.6659 3.31155 21.9797 4.01895 18.4233C4.72634 14.867 6.47242 11.6003 9.03639 9.03638C11.6003 6.47241 14.867 4.72633 18.4234 4.01894C21.9797 3.31154 25.6659 3.6746 29.0159 5.06221C32.3659 6.44982 35.2291 8.79965 37.2436 11.8145C39.2581 14.8294 40.3333 18.374 40.3333 22C40.328 26.8607 38.3947 31.5207 34.9577 34.9577C31.5207 38.3947 26.8607 40.328 22 40.3333Z" fill="black"/>
<path d="M21.9999 18.3333H20.1666C19.6804 18.3333 19.214 18.5265 18.8702 18.8703C18.5264 19.2141 18.3333 19.6804 18.3333 20.1667C18.3333 20.6529 18.5264 21.1192 18.8702 21.463C19.214 21.8068 19.6804 22 20.1666 22H21.9999V33C21.9999 33.4862 22.1931 33.9525 22.5369 34.2964C22.8807 34.6402 23.347 34.8333 23.8333 34.8333C24.3195 34.8333 24.7858 34.6402 25.1296 34.2964C25.4734 33.9525 25.6666 33.4862 25.6666 33V22C25.6666 21.0275 25.2803 20.0949 24.5926 19.4073C23.905 18.7196 22.9724 18.3333 21.9999 18.3333Z" fill="black"/>
<path d="M22 14.6667C23.5188 14.6667 24.75 13.4355 24.75 11.9167C24.75 10.3979 23.5188 9.16667 22 9.16667C20.4812 9.16667 19.25 10.3979 19.25 11.9167C19.25 13.4355 20.4812 14.6667 22 14.6667Z" fill="black"/>
</g>
<defs>
<clipPath id="clip0_105_3963">
<rect width="44" height="44" fill="white"/>
</clipPath>
</defs>
</svg>
