<svg width="44" height="44" viewBox="0 0 44 44" fill="none" xmlns="http://www.w3.org/2000/svg">
<g clip-path="url(#clip0_105_3969)">
<path d="M5.65821 19.5875C6.98582 10.5656 15.3757 4.32819 24.3976 5.65579C27.4756 6.10872 30.3631 7.42211 32.7273 9.44465L30.599 11.5729C29.8857 12.2865 29.8858 13.4432 30.5994 14.1566C30.9419 14.4989 31.4064 14.6914 31.8907 14.6914H40.2688C41.2778 14.6914 42.0957 13.8735 42.0957 12.8646V4.48644C42.0954 3.47748 41.2773 2.65975 40.2684 2.65992C39.7841 2.66001 39.3196 2.85243 38.9772 3.1948L36.6021 5.56973C27.5453 -2.50355 13.6585 -1.70629 5.58525 7.35052C2.72511 10.559 0.869051 14.5361 0.246995 18.7891C0.00173545 20.2969 1.02516 21.718 2.53286 21.9633C2.66868 21.9854 2.80587 21.9973 2.94348 21.999C4.3229 21.9841 5.48078 20.9555 5.65821 19.5875Z" fill="black"/>
<path d="M41.0561 21.999C39.6766 22.0139 38.5188 23.0424 38.3413 24.4105C37.0137 33.4323 28.6238 39.6698 19.602 38.3422C16.5239 37.8893 13.6364 36.5759 11.2722 34.5534L13.4005 32.4251C14.1139 31.7116 14.1137 30.5548 13.4001 29.8415C13.0576 29.4991 12.5932 29.3067 12.1089 29.3066H3.73091C2.72196 29.3066 1.90405 30.1245 1.90405 31.1334V39.5116C1.90431 40.5205 2.72239 41.3383 3.73134 41.3381C4.21561 41.338 4.6801 41.1456 5.02255 40.8032L7.39748 38.4283C16.4521 46.5024 30.3378 45.7077 38.4121 36.6529C41.2737 33.4437 43.1307 29.4653 43.7525 25.2107C43.9988 23.7031 42.9763 22.2813 41.4688 22.035C41.3323 22.0127 41.1944 22.0006 41.0561 21.999Z" fill="black"/>
</g>
<defs>
<clipPath id="clip0_105_3969">
<rect width="44" height="44" fill="white"/>
</clipPath>
</defs>
</svg>
