<svg width="44" height="44" viewBox="0 0 44 44" fill="none" xmlns="http://www.w3.org/2000/svg">
<g clip-path="url(#clip0_105_3973)">
<path d="M9.35 0.000372584H34.65C37.1048 -0.0216252 39.468 0.931242 41.221 2.64983C42.9739 4.36842 43.9734 6.71231 44 9.16704V14.667C44 15.1533 43.8068 15.6196 43.463 15.9634C43.1192 16.3072 42.6529 16.5004 42.1667 16.5004C41.6804 16.5004 41.2141 16.3072 40.8703 15.9634C40.5265 15.6196 40.3333 15.1533 40.3333 14.667V9.16704C40.3073 7.6846 39.6943 6.27302 38.6289 5.24194C37.5634 4.21086 36.1325 3.64448 34.65 3.66704H9.35C7.8675 3.64448 6.43659 4.21086 5.37114 5.24194C4.30569 6.27302 3.69271 7.6846 3.66666 9.16704V34.8337C3.69271 36.3161 4.30569 37.7277 5.37114 38.7588C6.43659 39.7899 7.8675 40.3563 9.35 40.3337H34.65C36.1325 40.3563 37.5634 39.7899 38.6289 38.7588C39.6943 37.7277 40.3073 36.3161 40.3333 34.8337V29.3337C40.3333 28.8475 40.5265 28.3812 40.8703 28.0373C41.2141 27.6935 41.6804 27.5004 42.1667 27.5004C42.6529 27.5004 43.1192 27.6935 43.463 28.0373C43.8068 28.3812 44 28.8475 44 29.3337V34.8337C43.9734 37.2884 42.9739 39.6323 41.221 41.3509C39.468 43.0695 37.1048 44.0224 34.65 44.0004H9.35C6.89522 44.0224 4.53201 43.0695 2.77905 41.3509C1.02608 39.6323 0.0266113 37.2884 0 34.8337V9.16704C0.0266113 6.71231 1.02608 4.36842 2.77905 2.64983C4.53201 0.931242 6.89522 -0.0216252 9.35 0.000372584Z" fill="black"/>
<path d="M38.5 22C38.5 22.4862 38.3068 22.9525 37.963 23.2964C37.6192 23.6402 37.1529 23.8333 36.6667 23.8333L12.4887 23.7783L20.4142 31.7038C20.5893 31.8729 20.7289 32.0753 20.825 32.2989C20.9211 32.5226 20.9717 32.7632 20.9738 33.0066C20.9759 33.25 20.9295 33.4914 20.8373 33.7167C20.7452 33.9421 20.609 34.1468 20.4369 34.3189C20.2648 34.491 20.0601 34.6272 19.8347 34.7193C19.6094 34.8115 19.368 34.8579 19.1246 34.8558C18.8812 34.8537 18.6406 34.8031 18.4169 34.707C18.1932 34.6109 17.9909 34.4713 17.8218 34.2962L9.41417 25.8885C8.38307 24.8571 7.80384 23.4584 7.80384 22C7.80384 20.5416 8.38307 19.1429 9.41417 18.1115L17.8182 9.70383C18.1639 9.36988 18.627 9.18509 19.1077 9.18926C19.5884 9.19344 20.0483 9.38625 20.3882 9.72617C20.7281 10.0661 20.9209 10.5259 20.9251 11.0066C20.9292 11.4873 20.7445 11.9504 20.4105 12.2962L12.5968 20.1117L36.6667 20.1667C37.1529 20.1667 37.6192 20.3598 37.963 20.7036C38.3068 21.0475 38.5 21.5138 38.5 22Z" fill="black"/>
</g>
<defs>
<clipPath id="clip0_105_3973">
<rect width="44" height="44" fill="white" transform="matrix(-1 0 0 1 44 0)"/>
</clipPath>
</defs>
</svg>
